<?xml version="1.0" encoding="UTF-8"?>
<svg id="Layer_2" data-name="Layer 2" xmlns="http://www.w3.org/2000/svg" viewBox="0 0 770.05 187.52">
  <g id="Layer_1-2" data-name="Layer 1">
    <g>
      <g>
        <path d="M128.95,116.78h-16.48c6.46-2.2,11.77-6.08,15.48-10.85l-.51,9.34c0,.83,.68,1.51,1.51,1.51Z"/>
        <path d="M22.68,57.72H.83l.49-39.2H22.02c12.01,0,18.85,6.17,18.85,19.52,0,14.01-8.34,19.69-18.19,19.69Z"/>
        <path d="M239.71,90.59v26.19h-23.71c14.32-3.77,23.71-12.81,23.71-26.19Z"/>
        <g>
          <path d="M239.71,0V90.59c0-36.54-56.22-19.86-56.22-36.2,0-7.35,5.17-10.34,13.35-10.34,10.18,0,14.85,4.5,16.17,11.84,.17,.83,.83,1.5,1.67,1.5h20.36c.83,0,1.5-.66,1.33-1.5-1.5-18.02-16.68-27.03-39.2-27.03s-37.54,9.51-37.54,27.36c0,36.03,56.22,20.18,56.22,36.52,0,6.68-5.33,10.51-15.18,10.51-11.67,0-18.01-4.16-18.67-13.84,0-.83-.68-1.5-1.51-1.5h-21.35c-.83,0-1.5,.66-1.5,1.5,.62,14.27,9.64,23.55,24.53,27.36h-32.04c.83,0,1.5-.68,1.5-1.51l-.16-43.2,.49-39.71c0-.83-.66-1.5-1.5-1.5h-22.69c-.83,0-1.5,.66-1.5,1.5l.32,35.04v6.34c0,18.35-9.67,26.69-18.68,26.69-7.51,0-13.18-6-13.18-15.34v-17.68l.51-35.04c0-.83-.66-1.5-1.51-1.5h-22.35c-.83,0-1.5,.66-1.5,1.5l.34,35.04v18.01c0,16.1,6.94,27.11,18.37,31.37H0c.83,0,1.5-.68,1.5-1.51l-.51-39.04H20.84c27.86,0,44.54-14.18,44.54-38.7S49.21,0,21.01,0H239.71Z"/>
          <g>
            <path d="M372.5,85.92v-23.69c0-22.85-10.02-33.36-27.36-33.36-10.18,0-18.85,3.18-26.19,16.19-4.01-11.02-12.5-16.19-24.53-16.19-11.01,0-18.68,4.5-24.68,12.84l.49-9.34c0-.83-.66-1.5-1.5-1.5h-21.35c-.83,0-1.5,.66-1.5,1.5l.16,53.56-.49,29.35c0,.83,.66,1.51,1.5,1.51h22.86c.83,0,1.5-.68,1.5-1.51l-.49-29.35v-12.01c0-17.53,8.17-26.7,15.17-26.7s11.02,5.01,11.02,15.35v23.36l-.51,29.35c0,.83,.66,1.51,1.51,1.51h22.51c.83,0,1.51-.68,1.51-1.51l-.51-29.35v-12.01c0-17.53,8.34-26.7,15.19-26.7s11.01,5.01,11.01,15.35v23.36l-.49,29.35c0,.83,.66,1.51,1.5,1.51h22.52c.83,0,1.5-.68,1.5-1.51l-.32-29.35Z"/>
            <path d="M421.53,28.69c-27.35,0-43.71,18.02-43.71,45.37s15.52,44.88,44.21,44.88c24.02,0,39.03-14.01,41.21-29.69,.16-.83-.51-1.5-1.34-1.5h-21.01c-.83,0-1.68,.66-1.83,1.5-2.34,9.17-8.34,13.01-16.68,13.01-12.02,0-18.36-7.17-19.36-23.36h61.39c.85,0,1.51-.66,1.51-1.5-.51-30.03-16.19-48.72-44.38-48.72Zm-17.84,34.36c1.99-11.84,8-17.85,18.01-17.85,11.01,0,16.19,8.68,17.19,17.85h-35.2Z"/>
            <path d="M553.32,80.24v-18.02c0-21.01-11.69-33.36-29.86-33.36-12.01,0-21.86,5.33-27.7,12.84l.51-9.34c0-.83-.66-1.5-1.51-1.5h-21.18c-.83,0-1.5,.66-1.5,1.5l.17,43.21-.51,39.7c0,.83,.66,1.51,1.5,1.51h22.69c.83,0,1.51-.68,1.51-1.51l-.34-35.03v-6.34c0-18.36,9.68-26.7,18.68-26.7,7.51,0,13.01,6.01,13.01,15.35v17.68l-.34,35.03c0,.83,.68,1.51,1.51,1.51h22.35c.83,0,1.5-.68,1.5-1.51l-.49-35.03Z"/>
            <path d="M646.24,1.5c0-.83-.68-1.5-1.51-1.5h-22.18c-.83,0-1.5,.66-1.5,1.5l.16,38.37c-5.83-7-14.17-10.67-24.68-10.67-23.36,0-37.71,20.01-37.71,44.86s12.86,44.38,37.2,44.38c10.85,0,19.36-4.35,25.36-11.69l-.49,8.51c0,.83,.66,1.51,1.5,1.51h22.35c.83,0,1.51-.68,1.51-1.51l-.34-56.89,.34-56.89Zm-43.21,100.42c-12.01,.17-18.68-9.67-18.68-29.02,0-17.85,6.51-27.53,19.18-27.19,12.02,.17,18.53,10.34,18.36,28.86-.17,18.18-6.68,27.35-18.85,27.35Z"/>
            <path d="M680.09,32.36c0-.83-.68-1.5-1.51-1.5h-22.51c-.85,0-1.51,.66-1.51,1.5l.51,41.55-.51,41.36c0,.83,.66,1.51,1.51,1.51h22.51c.83,0,1.51-.68,1.51-1.51l-.51-41.36,.51-41.55Zm-1.67-32.36h-22.35c-.85,0-1.51,.66-1.51,1.5V21.01c0,.83,.66,1.51,1.51,1.51h22.35c.83,0,1.5-.68,1.5-1.51V1.5c0-.83-.66-1.5-1.5-1.5Z"/>
            <path d="M769.51,115.44l-31.03-53.71,26.52-29.69c.34-.51,.17-1.17-.49-1.17h-24.53c-.83,0-1.83,.49-2.5,1.17l-24.85,31.02v-5.17l.49-56.39c0-.83-.66-1.5-1.5-1.5h-21.86c-.83,0-1.5,.66-1.5,1.5l.66,56.89-.66,56.89c0,.83,.66,1.51,1.5,1.51h21.86c.83,0,1.5-.68,1.5-1.51l-.17-25.19,8.17-10.34,10.68,19.02,8.68,16.68c.32,.83,1.33,1.34,2.16,1.34h26.02c.68,0,1.17-.68,.85-1.34Z"/>
          </g>
        </g>
      </g>
      <g>
        <path d="M35.41,177.17c0,7.82-3.22,8.52-17.69,8.52S.06,185.03,.06,177.06H7.92v2.23H27.52v-4.24h-9.8c-14.48,0-17.33,0-17.33-7.82s3.14-8.52,17.36-8.52,17.29,.84,17.29,8.63h-7.82v-2.23H8.21v4.24h9.5c14.66,0,17.69,0,17.69,7.82Z"/>
        <path d="M97,159.41v25.59h-7.82v-15.76l-9.61,15.76h-6.54l-9.61-15.76v15.76h-7.82v-25.59h10.05l10.67,17.44,10.64-17.44h10.05Z"/>
        <path d="M130.47,175.53h-4.79v9.47h-7.82v-25.59h7.82v9.47h4.75l11.11-9.47h10.2l-14.95,12.76,14.99,12.83h-10.2l-11.11-9.47Z"/>
        <path d="M241.66,172.2c0,12.1-.66,12.76-17.73,12.76l-17.8,.04v-25.59h17.8c17.03,0,17.73,.69,17.73,12.79Zm-7.82-6.4h-19.89v12.79h19.89v-12.79Z"/>
        <path d="M286.83,180.79h-17.03l-2.3,4.2h-8.74l13.89-25.59h11.33l13.89,25.59h-8.74l-2.3-4.2Zm-3.07-5.7l-5.45-10.02-5.45,10.02h10.89Z"/>
        <path d="M351.09,182.88v2.12h-7.75v-6.1h-19.01v6.1h-7.82v-25.59h23.4c10.02,0,11.19,.88,11.19,9.72,0,3.8-.91,5.08-3.03,6.1,2.12,1.1,3.03,1.57,3.03,7.64Zm-7.79-17.07h-18.97v6.69h18.97v-6.69Z"/>
        <path d="M388.47,185.69c-17.36,0-17.07-.69-17.07-13.49v-12.79h7.82v19.92h18.46v-19.92h7.82v12.79c0,12.79,.29,13.49-17.03,13.49Z"/>
        <path d="M460.22,165.11h-14.04v19.89h-7.82v-19.89h-14.04v-5.7h35.9v5.7Z"/>
        <path d="M548.82,165.11h-14.04v19.89h-7.82v-19.89h-14.04v-5.7h35.9v5.7Z"/>
        <path d="M589.13,180.79h-17.03l-2.3,4.2h-8.74l13.89-25.59h11.33l13.89,25.59h-8.74l-2.3-4.2Zm-3.07-5.7l-5.45-10.02-5.45,10.02h10.89Z"/>
        <path d="M653.42,183.32l-4.24,4.2-2.6-2.56c-2.41,.62-6.07,.73-11.3,.73-17.11,0-17.8-.69-17.8-13.49s.73-13.49,17.8-13.49,17.73,.69,17.73,13.49c0,4.64-.22,7.46-1.39,9.32l1.79,1.79Zm-8.22-18.2h-19.89v14.22h15.68l-2.52-2.41,4.24-4.24,2.49,2.41v-9.98Z"/>
        <path d="M717.86,159.41l-9.1,25.59h-9.1l-5.23-14.73-5.23,14.73h-9.07l-9.1-25.59h7.82l6.03,17.4,6.03-17.4h7.06l6.03,17.4,6.03-17.4h7.82Z"/>
        <path d="M759.01,180.79h-17.03l-2.3,4.2h-8.74l13.89-25.59h11.33l13.89,25.59h-8.74l-2.3-4.2Zm-3.07-5.7l-5.45-10.02-5.45,10.02h10.89Z"/>
      </g>
    </g>
  </g>
</svg>